<svg width="17" height="17" viewBox="0 0 17 17" fill="none" xmlns="http://www.w3.org/2000/svg">
<g clip-path="url(#clip0_3_1057)">
<path d="M3.87016 10.1338L3.31322 12.2129L1.27762 12.256C0.669281 11.1276 0.324219 9.83665 0.324219 8.46477C0.324219 7.13818 0.646844 5.88718 1.21872 4.78564H1.21916L3.03141 5.11789L3.82528 6.91927C3.65912 7.40368 3.56856 7.92368 3.56856 8.46477C3.56862 9.05202 3.675 9.61468 3.87016 10.1338Z" fill="#FBBB00"/>
<path d="M16.1844 6.97021C16.2763 7.45415 16.3242 7.95393 16.3242 8.46472C16.3242 9.03746 16.264 9.59615 16.1493 10.1351C15.7598 11.9689 14.7423 13.5702 13.3326 14.7034L11.0495 14.5865L10.7265 12.5698C11.6618 12.0212 12.3928 11.1627 12.7779 10.1351H8.50009V6.97021H12.8403H16.1844Z" fill="#518EF8"/>
<path d="M13.3339 14.703L13.3344 14.7034C11.9634 15.8054 10.2218 16.4648 8.32601 16.4648C5.27942 16.4648 2.63064 14.7619 1.27942 12.256L3.87195 10.1338C4.54754 11.9369 6.28689 13.2204 8.32601 13.2204C9.20248 13.2204 10.0236 12.9834 10.7282 12.5698L13.3339 14.703Z" fill="#28B446"/>
<path d="M13.433 2.30659L10.8414 4.42834C10.1122 3.97253 9.25016 3.70922 8.32666 3.70922C6.24138 3.70922 4.4695 5.05162 3.82775 6.91934L1.2216 4.78572H1.22116C2.5526 2.21869 5.23479 0.464844 8.32666 0.464844C10.2678 0.464844 12.0475 1.15628 13.433 2.30659Z" fill="#F14336"/>
</g>
<defs>
<clipPath id="clip0_3_1057">
<rect width="16" height="16" fill="white" transform="translate(0.324219 0.464844)"/>
</clipPath>
</defs>
</svg>
