<svg width="30" height="19" viewBox="0 0 30 19" fill="none" xmlns="http://www.w3.org/2000/svg">
<path d="M6.4 3.74847H1.6C0.716344 3.74847 0 4.39517 0 5.19292V15.304C0 16.1018 0.716344 16.7485 1.6 16.7485H6.4C7.28366 16.7485 8 16.1018 8 15.304V5.19292C8 4.39517 7.28366 3.74847 6.4 3.74847Z" fill="white"/>
<path d="M28.4 3.74835H23.6C22.7163 3.74835 22 4.39505 22 5.1928V15.3039C22 16.1017 22.7163 16.7484 23.6 16.7484H28.4C29.2837 16.7484 30 16.1017 30 15.3039V5.1928C30 4.39505 29.2837 3.74835 28.4 3.74835Z" fill="white"/>
<path d="M19.5 0.748352H10.5C9.67157 0.748352 9 1.41992 9 2.24835V17.2484C9 18.0768 9.67157 18.7484 10.5 18.7484H19.5C20.3284 18.7484 21 18.0768 21 17.2484V2.24835C21 1.41992 20.3284 0.748352 19.5 0.748352Z" fill="white"/>
</svg>
