<svg width="17" height="16" viewBox="0 0 17 16" fill="none" xmlns="http://www.w3.org/2000/svg">
<path d="M0.5 14.5C0.5 15.3281 1.26786 16 2.21429 16H14.7857C15.7321 16 16.5 15.3281 16.5 14.5V6H0.5V14.5ZM11.9286 8.375C11.9286 8.16875 12.1214 8 12.3571 8H13.7857C14.0214 8 14.2143 8.16875 14.2143 8.375V9.625C14.2143 9.83125 14.0214 10 13.7857 10H12.3571C12.1214 10 11.9286 9.83125 11.9286 9.625V8.375ZM11.9286 12.375C11.9286 12.1687 12.1214 12 12.3571 12H13.7857C14.0214 12 14.2143 12.1687 14.2143 12.375V13.625C14.2143 13.8313 14.0214 14 13.7857 14H12.3571C12.1214 14 11.9286 13.8313 11.9286 13.625V12.375ZM7.35714 8.375C7.35714 8.16875 7.55 8 7.78571 8H9.21429C9.45 8 9.64286 8.16875 9.64286 8.375V9.625C9.64286 9.83125 9.45 10 9.21429 10H7.78571C7.55 10 7.35714 9.83125 7.35714 9.625V8.375ZM7.35714 12.375C7.35714 12.1687 7.55 12 7.78571 12H9.21429C9.45 12 9.64286 12.1687 9.64286 12.375V13.625C9.64286 13.8313 9.45 14 9.21429 14H7.78571C7.55 14 7.35714 13.8313 7.35714 13.625V12.375ZM2.78571 8.375C2.78571 8.16875 2.97857 8 3.21429 8H4.64286C4.87857 8 5.07143 8.16875 5.07143 8.375V9.625C5.07143 9.83125 4.87857 10 4.64286 10H3.21429C2.97857 10 2.78571 9.83125 2.78571 9.625V8.375ZM2.78571 12.375C2.78571 12.1687 2.97857 12 3.21429 12H4.64286C4.87857 12 5.07143 12.1687 5.07143 12.375V13.625C5.07143 13.8313 4.87857 14 4.64286 14H3.21429C2.97857 14 2.78571 13.8313 2.78571 13.625V12.375ZM14.7857 2H13.0714V0.5C13.0714 0.225 12.8143 0 12.5 0H11.3571C11.0429 0 10.7857 0.225 10.7857 0.5V2H6.21429V0.5C6.21429 0.225 5.95714 0 5.64286 0H4.5C4.18571 0 3.92857 0.225 3.92857 0.5V2H2.21429C1.26786 2 0.5 2.67188 0.5 3.5V5H16.5V3.5C16.5 2.67188 15.7321 2 14.7857 2Z" fill="black"/>
</svg>
