<svg width="17" height="16" viewBox="0 0 17 16" fill="none" xmlns="http://www.w3.org/2000/svg">
<g clip-path="url(#clip0_10_2504)">
<path d="M14.7219 9.8182C14.7219 9.8182 12.9441 12.4503 12.9441 13.4546C12.9441 14.4588 13.7402 15.2727 14.7219 15.2727C15.7036 15.2727 16.4997 14.4588 16.4997 13.4546C16.4997 12.4503 14.7219 9.8182 14.7219 9.8182ZM14.4616 6.89377L8.69244 0.993488C8.51883 0.815931 8.29133 0.727295 8.06383 0.727295C7.83632 0.727295 7.60882 0.815931 7.43549 0.993488L5.16937 3.3111L2.77547 0.862522C2.60186 0.684965 2.32047 0.684965 2.14713 0.862522L1.5188 1.50514C1.34546 1.68269 1.34546 1.97048 1.5188 2.14775L3.91297 4.59604L1.28074 7.28809C0.239346 8.35286 0.239346 10.0796 1.28074 11.1446L4.53603 14.4739C5.05659 15.0063 5.73909 15.2727 6.42132 15.2727C7.10382 15.2727 7.78605 15.0066 8.3066 14.4739L14.4614 8.17928C14.8086 7.82417 14.8086 7.24889 14.4616 6.89377ZM11.2333 8.90997H2.33102C2.3688 8.80087 2.43019 8.68326 2.53741 8.57389L2.90269 8.20031L5.16965 5.88184L6.79743 7.54661C7.14438 7.90144 7.70716 7.90144 8.0541 7.54661C8.40105 7.19178 8.40105 6.61622 8.0541 6.26139L6.42632 4.59661L8.06383 2.9219L12.5761 7.53667L11.2333 8.90997Z" fill="black"/>
</g>
<defs>
<clipPath id="clip0_10_2504">
<rect width="16" height="16" fill="white" transform="translate(0.5)"/>
</clipPath>
</defs>
</svg>
