<svg width="17" height="16" viewBox="0 0 17 16" fill="none" xmlns="http://www.w3.org/2000/svg">
<path d="M8.50179 3.8978C6.23162 3.8978 4.4005 5.72933 4.4005 8C4.4005 10.2707 6.23162 12.1022 8.50179 12.1022C10.7719 12.1022 12.6031 10.2707 12.6031 8C12.6031 5.72933 10.7719 3.8978 8.50179 3.8978ZM8.50179 10.667C7.03475 10.667 5.83542 9.47094 5.83542 8C5.83542 6.52906 7.03118 5.33304 8.50179 5.33304C9.97239 5.33304 11.1682 6.52906 11.1682 8C11.1682 9.47094 9.96882 10.667 8.50179 10.667ZM13.7274 3.73C13.7274 4.26197 13.2991 4.68682 12.7708 4.68682C12.239 4.68682 11.8142 4.2584 11.8142 3.73C11.8142 3.20161 12.2426 2.77318 12.7708 2.77318C13.2991 2.77318 13.7274 3.20161 13.7274 3.73ZM16.4438 4.7011C16.3831 3.41939 16.0904 2.28406 15.1516 1.34866C14.2165 0.413254 13.0814 0.120495 11.7999 0.0562312C10.4793 -0.0187437 6.52075 -0.0187437 5.20006 0.0562312C3.9222 0.116925 2.78712 0.409684 1.84835 1.34509C0.909593 2.28049 0.620468 3.41582 0.556219 4.69753C0.48126 6.01852 0.48126 9.97791 0.556219 11.2989C0.616899 12.5806 0.909593 13.7159 1.84835 14.6513C2.78712 15.5867 3.91863 15.8795 5.20006 15.9438C6.52075 16.0187 10.4793 16.0187 11.7999 15.9438C13.0814 15.8831 14.2165 15.5903 15.1516 14.6513C16.0868 13.7159 16.3795 12.5806 16.4438 11.2989C16.5187 9.97791 16.5187 6.02209 16.4438 4.7011ZM14.7376 12.7163C14.4592 13.416 13.9202 13.9551 13.217 14.2372C12.164 14.6549 9.66542 14.5585 8.50179 14.5585C7.33815 14.5585 4.83597 14.6513 3.78656 14.2372C3.08695 13.9587 2.54796 13.4196 2.26598 12.7163C1.84835 11.6631 1.94473 9.1639 1.94473 8C1.94473 6.8361 1.85192 4.33337 2.26598 3.28372C2.54439 2.58396 3.08338 2.04485 3.78656 1.7628C4.83954 1.34509 7.33815 1.44148 8.50179 1.44148C9.66542 1.44148 12.1676 1.34866 13.217 1.7628C13.9166 2.04128 14.4556 2.58039 14.7376 3.28372C15.1552 4.33694 15.0588 6.8361 15.0588 8C15.0588 9.1639 15.1552 11.6666 14.7376 12.7163Z" fill="black"/>
</svg>
