<svg width="17" height="14" viewBox="0 0 17 14" fill="none" xmlns="http://www.w3.org/2000/svg">
<path d="M9.75033 -0.00244141H15.7503C16.1645 -0.00244141 16.5003 0.33334 16.5003 0.747559V5.74756C16.5003 6.16178 16.1645 6.49756 15.7503 6.49756H9.75033C9.33611 6.49756 9.00033 6.16178 9.00033 5.74756V0.747559C9.00033 0.33334 9.33611 -0.00244141 9.75033 -0.00244141ZM7.25033 -0.00244141H1.25033C0.836107 -0.00244141 0.500326 0.33334 0.500326 0.747559V5.74756C0.500326 6.16178 0.836107 6.49756 1.25033 6.49756H7.25033C7.66454 6.49756 8.00033 6.16178 8.00033 5.74756V0.747559C8.00033 0.33334 7.66454 -0.00244141 7.25033 -0.00244141ZM0.500326 8.24756V13.2476C0.500326 13.6618 0.836107 13.9976 1.25033 13.9976H7.25033C7.66454 13.9976 8.00033 13.6618 8.00033 13.2476V8.24756C8.00033 7.83334 7.66454 7.49756 7.25033 7.49756H1.25033C0.836107 7.49756 0.500326 7.83334 0.500326 8.24756ZM9.75033 13.9976H15.7503C16.1645 13.9976 16.5003 13.6618 16.5003 13.2476V8.24756C16.5003 7.83334 16.1645 7.49756 15.7503 7.49756H9.75033C9.33611 7.49756 9.00033 7.83334 9.00033 8.24756V13.2476C9.00033 13.6618 9.33611 13.9976 9.75033 13.9976Z" fill="black"/>
</svg>
