<svg width="17" height="16" viewBox="0 0 17 16" fill="none" xmlns="http://www.w3.org/2000/svg">
<path d="M14.8652 9.13241C15.0096 8.38278 15.0096 7.61721 14.8652 6.86759L16.2982 6.07543C16.4649 5.98505 16.5371 5.79898 16.4815 5.62353C16.1094 4.47517 15.4706 3.43314 14.6375 2.57187C14.5098 2.43896 14.3042 2.40706 14.1376 2.49744L12.7046 3.2896C12.0992 2.79516 11.4049 2.41238 10.6551 2.15719V0.572873C10.6551 0.392112 10.5218 0.232617 10.3385 0.195401C9.09987 -0.0704231 7.83904 -0.0597901 6.66153 0.195401C6.47823 0.232617 6.34493 0.392112 6.34493 0.572873V2.15719C5.5951 2.41238 4.90081 2.79516 4.29539 3.2896L2.86238 2.49744C2.70131 2.40706 2.49025 2.43896 2.3625 2.57187C1.52935 3.43314 0.890608 4.47517 0.51847 5.62353C0.462927 5.79898 0.540686 5.98505 0.701761 6.07543L2.13477 6.86759C1.99036 7.61721 1.99036 8.38278 2.13477 9.13241L0.701761 9.92457C0.535132 10.0149 0.462927 10.201 0.51847 10.3765C0.890608 11.5248 1.52935 12.5615 2.3625 13.4281C2.49025 13.561 2.69576 13.5929 2.86238 13.5026L4.29539 12.7104C4.90081 13.2048 5.5951 13.5876 6.34493 13.8428V15.4271C6.34493 15.6079 6.47823 15.7674 6.66153 15.8046C7.90014 16.0704 9.16096 16.0598 10.3385 15.8046C10.5218 15.7674 10.6551 15.6079 10.6551 15.4271V13.8428C11.4049 13.5876 12.0992 13.2048 12.7046 12.7104L14.1376 13.5026C14.2987 13.5929 14.5098 13.561 14.6375 13.4281C15.4706 12.5669 16.1094 11.5248 16.4815 10.3765C16.5371 10.201 16.4593 10.0149 16.2982 9.92457L14.8652 9.13241ZM8.50556 10.5785C7.017 10.5785 5.81172 9.4195 5.81172 8C5.81172 6.5805 7.02256 5.42151 8.50556 5.42151C9.98855 5.42151 11.1994 6.5805 11.1994 8C11.1994 9.4195 9.99411 10.5785 8.50556 10.5785Z" fill="black"/>
</svg>
