<svg width="17" height="16" viewBox="0 0 17 16" fill="none" xmlns="http://www.w3.org/2000/svg">
<path d="M7.47266 15.2592L5.94765 14.7564C5.78765 14.7052 5.69765 14.5149 5.74265 14.3331L9.15516 0.975107C9.20016 0.793289 9.36766 0.691016 9.52766 0.742152L11.0527 1.24499C11.2127 1.29613 11.3027 1.48647 11.2577 1.66829L7.84516 15.0262C7.79766 15.2081 7.63266 15.3132 7.47266 15.2592ZM4.62265 12.0717L5.71015 10.7535C5.82515 10.6143 5.81765 10.3927 5.69015 10.2649L3.42514 8.00067L5.69015 5.73647C5.81765 5.60863 5.82765 5.38704 5.71015 5.24783L4.62265 3.92965C4.51015 3.79329 4.32015 3.78477 4.19765 3.91545L0.595137 7.75067C0.467637 7.8842 0.467637 8.11431 0.595137 8.24783L4.19765 12.0859C4.32015 12.2166 4.51015 12.2109 4.62265 12.0717ZM12.8027 12.0887L16.4052 8.25067C16.5327 8.11715 16.5327 7.88704 16.4052 7.75352L12.8027 3.91261C12.6827 3.78477 12.4927 3.79045 12.3777 3.92681L11.2902 5.24499C11.1752 5.3842 11.1827 5.60579 11.3102 5.73363L13.5752 8.00067L11.3102 10.2649C11.1827 10.3927 11.1727 10.6143 11.2902 10.7535L12.3777 12.0717C12.4902 12.2109 12.6802 12.2166 12.8027 12.0887Z" fill="black"/>
</svg>
